<svg xmlns="http://www.w3.org/2000/svg" width="56" height="56" viewBox="0 0 56 56">
    <g fill="none" fill-rule="evenodd">
        <circle cx="28" cy="28" r="26" stroke="#FFF" stroke-width="2"/>
        <path fill="#FFF" d="M39.376 29.984s.025 2.575-2.591 2.575h-.797V30.89h.48s1.1.102 1.088-1.592c0 0-.215.686-1.757.686 0 0-2.187-.158-2.187-2.292v-.809s.05-2.212 2.452-2.389c0 0 .948-.1 1.53.683v-.544h1.782v5.35zm-9.626 0c-1.626 0-2.945-1.214-2.945-2.712 0-1.497 1.319-2.711 2.945-2.711 1.627 0 2.946 1.214 2.946 2.711 0 1.498-1.32 2.712-2.946 2.712zm-4.165-5.262v5.069h-1.757v-5.019c0-.682-.847-.872-.847-.872v-1.77c2.806.114 2.604 2.592 2.604 2.592zm-3.16 2.806c-.012 2.384-2.477 2.452-2.477 2.452-.953 0-1.492-.632-1.492-.632v.43h-1.795v-7.403c-.007-.001-.008-.003 0-.004v.004c.111.018 1.795-.004 1.795-.004v2.831c.422-.72 1.643-.708 1.643-.708 2.658.248 2.326 3.034 2.326 3.034zM38.987 16A4.013 4.013 0 0 1 43 20.013v13.041a4.013 4.013 0 0 1-4.013 4.014h-7.69l-2.64 5.41s-.181.539-.621.539-.622-.54-.622-.54l-2.64-5.41h-7.761A4.013 4.013 0 0 1 13 33.055V20.013A4.013 4.013 0 0 1 17.013 16h21.974zm-19.44 10.267a1.033 1.033 0 1 0 0 2.066 1.033 1.033 0 0 0 0-2.066zm10.203-.107a1.112 1.112 0 1 0 0 2.225 1.112 1.112 0 0 0 0-2.225zm6.832.025a1.087 1.087 0 1 0 0 2.174 1.087 1.087 0 0 0 0-2.174z"/>
    </g>
</svg>
