<?xml version="1.0" encoding="UTF-8"?>
<svg width="56px" height="56px" viewBox="0 0 56 56" version="1.1" xmlns="http://www.w3.org/2000/svg" xmlns:xlink="http://www.w3.org/1999/xlink">
    <!-- Generator: sketchtool 51.2 (57519) - http://www.bohemiancoding.com/sketch -->
    <title>854F4F1C-DABF-48FF-BAF3-11CE75512035</title>
    <desc>Created with sketchtool.</desc>
    <defs></defs>
    <g id="Symbols" stroke="none" stroke-width="1" fill="none" fill-rule="evenodd">
        <g id="Footer" transform="translate(-1283.000000, -38.000000)">
            <g id="Group-9">
                <g transform="translate(370.000000, 35.000000)">
                    <g id="btn_instagram" transform="translate(913.000000, 3.000000)">
                        <circle id="Oval-3" stroke="#FFFFFF" stroke-width="2" cx="28" cy="28" r="26"></circle>
                        <g id="icon_instagram" transform="translate(13.000000, 13.000000)">
                            <path d="M22.3025714,29.2851429 L7.69685714,29.2851429 C3.83971429,29.2851429 0.715428571,26.1594286 0.715428571,22.3022857 L0.715428571,7.69657143 C0.715428571,3.84085714 3.83971429,0.713714286 7.69685714,0.713714286 L22.3025714,0.713714286 C26.1597143,0.713714286 29.2868571,3.84085714 29.2868571,7.69657143 L29.2868571,22.3022857 C29.2868571,26.1594286 26.1597143,29.2851429 22.3025714,29.2851429 Z" id="Stroke-1" stroke="#FFFFFF" stroke-width="2" stroke-linecap="round" stroke-linejoin="round"></path>
                            <path d="M21.1752857,15.0001429 C21.1752857,18.4101429 18.4095714,21.1758571 15.001,21.1758571 C11.5895714,21.1758571 8.82385714,18.4101429 8.82385714,15.0001429 C8.82385714,11.5901429 11.5895714,8.82442857 15.001,8.82442857 C18.4095714,8.82442857 21.1752857,11.5901429 21.1752857,15.0001429 Z" id="Stroke-3" stroke="#FFFFFF" stroke-width="2" stroke-linecap="round" stroke-linejoin="round"></path>
                            <path d="M24.7215714,6.88914286 C24.7215714,7.54628571 24.1872857,8.08057143 23.5301429,8.08057143 C22.8715714,8.08057143 22.3387143,7.54628571 22.3387143,6.88914286 C22.3387143,6.232 22.8715714,5.69914286 23.5301429,5.69914286 C24.1872857,5.69914286 24.7215714,6.232 24.7215714,6.88914286" id="Fill-5" fill="#FFFFFF"></path>
                        </g>
                    </g>
                </g>
            </g>
        </g>
    </g>
</svg>