<?xml version="1.0" encoding="utf-8"?>
<!-- Generator: Adobe Illustrator 22.0.1, SVG Export Plug-In . SVG Version: 6.00 Build 0)  -->
<svg version="1.1" id="레이어_1" xmlns="http://www.w3.org/2000/svg" xmlns:xlink="http://www.w3.org/1999/xlink" x="0px"
	 y="0px" viewBox="0 0 56 56" style="enable-background:new 0 0 56 56;" xml:space="preserve">
<style type="text/css">
	.st0{fill:none;stroke:#FFFFFF;stroke-width:2;}
	.st1{fill:#FFFFFF;}
</style>
<g>
	<circle class="st0" cx="28" cy="28" r="26"/>
	<path class="st1" d="M44.4,19.8c-0.4-1.5-1.5-2.6-3-3C38.7,16,28,16,28,16s-10.7,0-13.4,0.7c-1.4,0.4-2.6,1.6-3,3
		c-0.7,2.7-0.7,8.2-0.7,8.2s0,5.6,0.7,8.2c0.4,1.5,1.5,2.6,3,3C17.3,40,28,40,28,40s10.7,0,13.4-0.7c1.5-0.4,2.6-1.5,3-3
		c0.7-2.7,0.7-8.2,0.7-8.2S45.1,22.4,44.4,19.8z M24.6,33.1V22.9l8.9,5.1L24.6,33.1z"/>
</g>
</svg>
