<?xml version="1.0" encoding="UTF-8"?>
<svg width="30px" height="30px" viewBox="0 0 30 30" version="1.1" xmlns="http://www.w3.org/2000/svg" xmlns:xlink="http://www.w3.org/1999/xlink">
    <!-- Generator: sketchtool 52 (66869) - http://www.bohemiancoding.com/sketch -->
    <title>58150F67-496B-499D-B474-F92CD9A09D9C</title>
    <desc>Created with sketchtool.</desc>
    <g id="Symbols" stroke="none" stroke-width="1" fill="none" fill-rule="evenodd">
        <g id="main_menu_press" transform="translate(-17.000000, -107.000000)" stroke="#FFFFFF">
            <g id="main_menu">
                <g id="icon_menu_vrgallery_over&amp;press" transform="translate(17.000000, 107.000000)">
                    <path d="M17,14.9620183 C17,13.6620116 18.0570723,12.6007638 19.3540147,12.6007638 C20.6509803,12.6007638 21.7082488,13.6620352 21.7082488,14.9620183 C21.7082488,16.2620014 20.6509803,17.3232729 19.3540147,17.3232729 C18.0570723,17.3232729 17,16.262025 17,14.9620183 Z M8.5,14.9620183 C8.5,13.6619648 9.5571457,12.6007638 10.8542933,12.6007638 C12.151288,12.6007638 13.2085867,13.6620317 13.2085867,14.9620183 C13.2085867,16.262005 12.151288,17.3232729 10.8542933,17.3232729 C9.5571457,17.3232729 8.5,16.2620719 8.5,14.9620183 Z M5.73551708,8.5 C5.6086963,8.5 5.5,8.61179789 5.5,8.75663383 L5.5,21.2433662 C5.5,21.3880139 5.60884566,21.5 5.73551708,21.5 L12.4266775,21.5 C12.5030885,21.5 12.576242,21.4548333 12.6046105,21.4238241 L13.5764965,19.1682961 C13.8244017,18.5936192 14.3816592,18.2204631 15.0001645,18.2204631 C15.6188228,18.2204631 16.1764867,18.5937998 16.4239146,19.1684863 L17.3763129,21.3837897 C17.4137575,21.4530114 17.4919928,21.5 17.5736516,21.5 L24.264812,21.5 C24.3913494,21.5 24.5,21.3881454 24.5,21.2433662 L24.5,8.75663383 C24.5,8.61166635 24.3914987,8.5 24.264812,8.5 L5.73551708,8.5 Z" id="Fill-15"></path>
                </g>
            </g>
        </g>
    </g>
</svg>